<svg width="50" height="50" viewBox="0 0 50 50" fill="none" xmlns="http://www.w3.org/2000/svg">
<path d="M39.8 25L47.4001 17.4C47.6889 17.0149 47.8291 16.5385 47.795 16.0582C47.7609 15.578 47.5547 15.1262 47.2143 14.7858C46.8738 14.4454 46.422 14.2392 45.9418 14.205C45.4616 14.1709 44.9852 14.3112 44.6 14.6L37 22.2L29.4 14.6C29.0149 14.3112 28.5385 14.1709 28.0583 14.205C27.5781 14.2392 27.1263 14.4454 26.7858 14.7858C26.4454 15.1262 26.2392 15.578 26.2051 16.0582C26.171 16.5385 26.3112 17.0149 26.6001 17.4L34.2001 25L26.6001 32.6C26.3708 32.7719 26.1812 32.9911 26.044 33.2427C25.9069 33.4943 25.8254 33.7724 25.8051 34.0582C25.7848 34.3441 25.8261 34.6309 25.9263 34.8994C26.0265 35.1678 26.1832 35.4116 26.3858 35.6142C26.5885 35.8168 26.8322 35.9736 27.1007 36.0738C27.3692 36.174 27.656 36.2153 27.9418 36.195C28.2277 36.1747 28.5058 36.0932 28.7574 35.956C29.0089 35.8189 29.2281 35.6293 29.4 35.4L37 27.8L44.6 35.4C44.9852 35.6889 45.4616 35.8291 45.9418 35.795C46.422 35.7609 46.8738 35.5547 47.2143 35.2142C47.5547 34.8738 47.7609 34.422 47.795 33.9418C47.8291 33.4616 47.6889 32.9852 47.4001 32.6L39.8 25Z" fill="#FDFBF5"/>
<path d="M21.7 5.1C21.3256 4.95228 20.9153 4.92098 20.5228 5.01018C20.1303 5.09939 19.7738 5.30496 19.5 5.6L11.1 15H4C3.46957 15 2.96086 15.2107 2.58579 15.5858C2.21071 15.9609 2 16.4696 2 17V34C2 34.5304 2.21071 35.0391 2.58579 35.4142C2.96086 35.7893 3.46957 36 4 36H11.2L19.6 44.4C19.9693 44.7768 20.4725 44.9925 21 45L21.8 44.8C22.1516 44.6466 22.4516 44.3954 22.6644 44.0763C22.8771 43.7571 22.9936 43.3835 23 43V7C23.0054 6.58796 22.8835 6.18429 22.6508 5.8442C22.4181 5.50411 22.086 5.2442 21.7 5.1ZM19 38.2L13.4 32.6C13.0307 32.2232 12.5275 32.0075 12 32H6V19H12C12.2855 18.9972 12.5671 18.9332 12.8258 18.8125C13.0845 18.6917 13.3144 18.517 13.5 18.3L19 12.2V38.2Z" fill="#FDFBF5"/>
</svg>
