<svg width="50" height="50" viewBox="0 0 50 50" fill="none" xmlns="http://www.w3.org/2000/svg">
<path d="M21.7 5.1C21.3256 4.95228 20.9153 4.92098 20.5228 5.01018C20.1303 5.09939 19.7738 5.30496 19.5 5.6L11.1 15H4C3.46957 15 2.96086 15.2107 2.58579 15.5858C2.21071 15.9609 2 16.4696 2 17V34C2 34.5304 2.21071 35.0391 2.58579 35.4142C2.96086 35.7893 3.46957 36 4 36H11.2L19.6 44.4C19.9693 44.7768 20.4725 44.9925 21 45L21.8 44.8C22.1516 44.6466 22.4516 44.3954 22.6644 44.0763C22.8771 43.7571 22.9936 43.3835 23 43V7C23.0054 6.58796 22.8835 6.18429 22.6508 5.8442C22.4181 5.50411 22.086 5.2442 21.7 5.1ZM19 38.2L13.4 32.6C13.0307 32.2232 12.5275 32.0075 12 32H6V19H12C12.2855 18.9972 12.5671 18.9332 12.8258 18.8125C13.0845 18.6917 13.3144 18.517 13.5 18.3L19 12.2V38.2Z" fill="#FEFEFE"/>
<path d="M34.4999 11C34.328 10.7708 34.1088 10.5812 33.8572 10.444C33.6056 10.3069 33.3275 10.2254 33.0417 10.205C32.7559 10.1847 32.469 10.2261 32.2006 10.3263C31.9321 10.4265 31.6883 10.5832 31.4857 10.7858C31.2831 10.9884 31.1264 11.2322 31.0262 11.5007C30.926 11.7691 30.8846 12.056 30.9049 12.3418C30.9252 12.6276 31.0067 12.9057 31.1439 13.1573C31.2811 13.4089 31.4707 13.6281 31.6999 13.8C33.1754 15.2682 34.3462 17.0134 35.1452 18.9355C35.9441 20.8575 36.3554 22.9185 36.3554 25C36.3554 27.0815 35.9441 29.1425 35.1452 31.0645C34.3462 32.9866 33.1754 34.7318 31.6999 36.2C31.4707 36.3719 31.2811 36.5911 31.1439 36.8427C31.0067 37.0943 30.9252 37.3724 30.9049 37.6582C30.8846 37.9441 30.926 38.2309 31.0262 38.4994C31.1264 38.7678 31.2831 39.0116 31.4857 39.2142C31.6883 39.4168 31.9321 39.5736 32.2006 39.6738C32.469 39.774 32.7559 39.8153 33.0417 39.795C33.3275 39.7747 33.6056 39.6932 33.8572 39.556C34.1088 39.4189 34.328 39.2292 34.4999 39C38.2127 35.2869 40.2985 30.2509 40.2985 25C40.2985 19.7491 38.2127 14.7132 34.4999 11Z" fill="#FEFEFE"/>
<path d="M39.9001 5.59999C39.7281 5.37075 39.5089 5.18114 39.2574 5.04398C39.0058 4.90683 38.7276 4.82533 38.4418 4.80502C38.156 4.78471 37.8692 4.82605 37.6007 4.92625C37.3322 5.02644 37.0885 5.18316 36.8858 5.38577C36.6832 5.58839 36.5265 5.83218 36.4263 6.10064C36.3261 6.36909 36.2848 6.65594 36.3051 6.94177C36.3254 7.22759 36.4069 7.50571 36.544 7.7573C36.6812 8.00888 36.8708 8.22806 37.1 8.39999C39.286 10.5663 41.0212 13.1442 42.2054 15.9848C43.3895 18.8254 43.9992 21.8724 43.9992 24.95C43.9992 28.0275 43.3895 31.0746 42.2054 33.9152C41.0212 36.7558 39.286 39.3337 37.1 41.5C36.8708 41.6719 36.6812 41.8911 36.544 42.1427C36.4069 42.3943 36.3254 42.6724 36.3051 42.9582C36.2848 43.244 36.3261 43.5309 36.4263 43.7993C36.5265 44.0678 36.6832 44.3116 36.8858 44.5142C37.0885 44.7168 37.3322 44.8735 37.6007 44.9737C37.8692 45.0739 38.156 45.1153 38.4418 45.095C38.7276 45.0746 39.0058 44.9932 39.2574 44.856C39.5089 44.7188 39.7281 44.5292 39.9001 44.3C42.4489 41.7633 44.4715 38.748 45.8516 35.4273C47.2317 32.1066 47.9421 28.546 47.9421 24.95C47.9421 21.3539 47.2317 17.7933 45.8516 14.4727C44.4715 11.152 42.4489 8.1367 39.9001 5.59999Z" fill="#FEFEFE"/>
<path d="M28.9 16.6C28.5149 16.3112 28.0385 16.1709 27.5583 16.205C27.0781 16.2392 26.6263 16.4454 26.2858 16.7858C25.9454 17.1262 25.7392 17.578 25.7051 18.0582C25.671 18.5385 25.8112 19.0149 26.1001 19.4C26.8378 20.1341 27.4232 21.0067 27.8227 21.9678C28.2222 22.9288 28.4278 23.9593 28.4278 25C28.4278 26.0408 28.2222 27.0712 27.8227 28.0323C27.4232 28.9933 26.8378 29.8659 26.1001 30.6C25.8708 30.7719 25.6812 30.9911 25.544 31.2427C25.4069 31.4943 25.3254 31.7724 25.3051 32.0582C25.2848 32.3441 25.3261 32.6309 25.4263 32.8994C25.5265 33.1678 25.6832 33.4116 25.8858 33.6142C26.0885 33.8168 26.3322 33.9736 26.6007 34.0738C26.8692 34.174 27.156 34.2153 27.4418 34.195C27.7277 34.1747 28.0058 34.0932 28.2574 33.956C28.5089 33.8189 28.7281 33.6293 28.9 33.4C31.1228 31.1695 32.3709 28.149 32.3709 25C32.3709 21.8511 31.1228 18.8305 28.9 16.6Z" fill="#FEFEFE"/>
</svg>
